<svg width="134" height="64" viewBox="0 0 134 64" fill="none" xmlns="http://www.w3.org/2000/svg">
<path d="M51.1821 14.8605C51.1256 14.8567 51.0691 14.8529 51.0126 14.8529C51.007 14.8529 51.0013 14.8529 50.9957 14.8529V14.8492L45.281 3.61644C45.2566 3.56944 45.2283 3.52809 45.1982 3.48862C45.2283 3.52809 45.2566 3.57132 45.281 3.61644L45.7028 4.44724C46.52 3.63335 46.6819 2.30632 46.021 1.24996C45.5183 0.445476 44.6634 0 43.8029 0C43.368 0 42.9312 0.114658 42.5357 0.353373L42.483 0.385327C41.342 1.11839 41.0125 2.65782 41.7336 3.86267L41.7882 3.94913C42.2947 4.72542 43.1345 5.15586 43.9799 5.15586C44.0421 5.15586 44.1061 5.15398 44.1682 5.14834L43.7766 4.37769L49.4498 15.5334C49.1391 15.8661 48.9339 16.3003 48.8887 16.7871L48.8849 16.8472C48.8378 17.5634 49.1542 18.2213 49.6739 18.6423L49.5929 18.7701L49.4498 18.9994L43.7954 28.018C43.5488 28.4127 43.6674 28.9315 44.0628 29.1777C44.2021 29.2642 44.3565 29.3055 44.509 29.3055C44.7896 29.3055 45.0645 29.1664 45.2245 28.9108L51.3478 19.1461L51.3873 19.0821C52.325 18.9186 53.0687 18.1386 53.146 17.148C53.2382 15.9732 52.3589 14.9488 51.1821 14.8567V14.8605ZM45.1718 3.45667C45.1455 3.42471 45.1172 3.39652 45.0871 3.3702C45.1172 3.39652 45.1455 3.42659 45.1718 3.45667ZM44.6164 3.16344C44.5731 3.15968 44.5279 3.1578 44.4846 3.15968C44.4996 3.15968 44.5128 3.1578 44.5279 3.1578C44.558 3.1578 44.5881 3.16156 44.6164 3.16344ZM45.0664 3.35141C45.0287 3.32133 44.9892 3.29314 44.9478 3.2687C44.9892 3.29314 45.0287 3.31945 45.0664 3.35141ZM44.9176 3.25366C44.8837 3.23675 44.848 3.21983 44.8122 3.20667C44.848 3.21983 44.8837 3.23487 44.9176 3.25366ZM44.7764 3.19539C44.7312 3.18224 44.6841 3.17096 44.6371 3.16344C44.6841 3.16908 44.7312 3.18036 44.7764 3.19539Z" fill="#85BD54"/>
<path d="M99.1172 26.8939C97.0686 25.0068 94.12 24.0632 90.2675 24.0632C88.025 24.0632 85.9067 24.3715 83.9127 24.9842C81.9168 25.5951 80.2015 26.4785 78.7667 27.6308L80.8699 31.4051C81.9545 30.4972 83.2838 29.7717 84.8598 29.2322C86.4377 28.689 88.0476 28.4183 89.6932 28.4183C92.1429 28.4183 93.9976 28.9954 95.2591 30.1495C96.5188 31.2998 97.1496 32.9596 97.1496 35.1268V36.1249H89.166C85.2797 36.1249 82.444 36.8673 80.6572 38.3523C78.8703 39.8391 77.9778 41.8033 77.9778 44.2506C77.9778 46.6979 78.9136 48.6715 80.7871 50.1752C82.6624 51.6771 85.1573 52.427 88.2716 52.427C90.4069 52.427 92.2559 52.0868 93.8149 51.4045C95.374 50.7241 96.5715 49.7354 97.4113 48.4441V52.1131H102.19V35.3373C102.19 31.5968 101.166 28.7811 99.1191 26.8939H99.1172ZM97.1477 43.619C96.5169 45.1942 95.5001 46.4084 94.0992 47.2655C92.7002 48.1226 91.0376 48.5493 89.1133 48.5493C87.189 48.5493 85.6789 48.1471 84.5943 47.3426C83.5098 46.5381 82.9656 45.4366 82.9656 44.0382C82.9656 41.1717 85.1008 39.7376 89.375 39.7376H97.1458V43.619H97.1477Z" fill="#002FA7"/>
<path d="M128.959 13.212V28.5198C127.839 27.0537 126.438 25.9428 124.759 25.191C123.077 24.4391 121.238 24.0632 119.244 24.0632C116.547 24.0632 114.13 24.659 111.994 25.8489C109.861 27.0368 108.189 28.6984 106.982 30.8299C105.773 32.9596 105.171 35.4238 105.171 38.2188C105.171 41.0138 105.775 43.4893 106.982 45.6396C108.191 47.7881 109.861 49.4572 111.994 50.6433C114.13 51.8312 116.547 52.4252 119.244 52.4252C121.309 52.4252 123.2 52.0229 124.915 51.2184C126.63 50.4139 128.05 49.2429 129.17 47.7054V52.1113H134V13.212H128.959ZM127.801 43.3333C126.997 44.8163 125.879 45.9686 124.444 46.7919C123.009 47.6151 121.415 48.0249 119.662 48.0249C117.909 48.0249 116.276 47.6133 114.856 46.7919C113.439 45.9686 112.318 44.8163 111.495 43.3333C110.673 41.8484 110.264 40.1436 110.264 38.2188C110.264 36.294 110.675 34.5948 111.495 33.108C112.32 31.6231 113.439 30.4784 114.856 29.6739C116.276 28.8695 117.879 28.4672 119.662 28.4672C121.445 28.4672 123.008 28.8695 124.444 29.6739C125.879 30.4784 126.999 31.6231 127.801 33.108C128.607 34.5948 129.01 36.2978 129.01 38.2188C129.01 40.1398 128.607 41.8484 127.801 43.3333Z" fill="#002FA7"/>
<path d="M59.2616 29.6439C60.7134 28.8394 62.3496 28.4371 64.1685 28.4371C65.7426 28.4371 67.1755 28.7698 68.4672 29.4352C69.7626 30.0987 70.8472 31.0931 71.7227 32.4201L75.5507 29.9578C74.468 28.0386 72.9372 26.5725 70.9602 25.5594C68.9831 24.5463 66.7349 24.0406 64.2175 24.0406C61.3856 24.0406 58.8568 24.644 56.635 25.8489C54.415 27.0537 52.6733 28.7285 51.4137 30.8769C50.1559 33.0235 49.527 35.4576 49.527 38.1793C49.527 40.9011 50.1559 43.3427 51.4137 45.4911C52.6733 47.6377 54.415 49.3219 56.635 50.5436C58.8568 51.7654 61.3856 52.3763 64.2175 52.3763C66.7368 52.3763 68.9831 51.8613 70.9602 50.8331C72.9372 49.803 74.4661 48.3256 75.5507 46.4046L71.7227 43.9968C70.8453 45.3239 69.7607 46.3201 68.4672 46.9855C67.1755 47.649 65.7426 47.9798 64.1685 47.9798C62.3477 47.9798 60.7134 47.5794 59.2616 46.7731C57.8099 45.9686 56.6726 44.8257 55.8498 43.3427C55.0289 41.8578 54.6184 40.1379 54.6184 38.1812C54.6184 36.2245 55.0289 34.5629 55.8498 33.078C56.6745 31.5931 57.8118 30.4484 59.2616 29.6439Z" fill="#002FA7"/>
<path d="M29.0673 24.926H29.056C28.6286 24.9297 28.2558 25.2436 28.188 25.6684C28.1804 25.7154 28.1767 25.7624 28.1767 25.8075V25.8169C28.1786 26.2643 28.5194 26.6477 28.9769 26.6928C29.007 26.6966 29.0353 26.6966 29.0654 26.6966C29.1934 26.6966 29.3158 26.6684 29.4288 26.6195C29.8788 26.4165 30.3627 26.3 30.8523 26.3C30.9521 26.3 31.0519 26.3056 31.1517 26.315L33.5712 26.5556C34.3018 26.6289 34.9796 26.9485 35.5294 27.4372C35.7121 27.6007 35.9493 27.7097 36.2129 27.736C36.2506 27.7398 36.2864 27.7417 36.324 27.7417H36.3447C36.983 27.736 37.5253 27.2304 37.5442 26.5669C37.5611 25.9767 37.1393 25.4541 36.5594 25.347C36.4822 25.332 36.4069 25.3263 36.3316 25.3263C36.1113 25.3263 35.9041 25.3865 35.7234 25.4917C35.1811 25.8094 34.571 25.988 33.9497 25.988C33.8442 25.988 33.7369 25.9823 33.6315 25.9729L31.1856 25.7304C30.6056 25.6722 30.0596 25.4429 29.5889 25.1008C29.4552 25.003 29.2895 24.941 29.1106 24.9316C29.0974 24.9316 29.0861 24.9316 29.0729 24.9316" fill="#638B41"/>
<path d="M43.6711 28.377V28.3789C44.2172 28.4728 44.7049 28.721 45.0965 29.0725C45.1436 29.0255 45.1869 28.9728 45.2245 28.9146L45.4147 28.6101L43.6711 28.3751" fill="#85BD54"/>
<path d="M43.6711 28.3789C43.6373 28.689 43.7803 29.0048 44.0628 29.1815C44.2021 29.2679 44.3565 29.3093 44.509 29.3093C44.7256 29.3093 44.9383 29.2266 45.0965 29.0725C44.703 28.7191 44.2172 28.4728 43.6711 28.3789Z" fill="#638B41"/>
<path d="M36.904 46.4516C36.7778 46.4178 36.6517 46.3952 36.5255 46.384L33.607 40.6266C33.5825 40.5796 33.5543 40.5383 33.5241 40.4969C33.5543 40.5364 33.5825 40.5796 33.607 40.6266L34.5522 42.4893C34.8403 42.0909 34.9495 41.5552 34.8045 41.0289C34.5974 40.2733 33.929 39.7714 33.2116 39.7714C33.0911 39.7714 32.9687 39.7864 32.8482 39.8146L32.7597 39.8391C31.9425 40.0909 31.4718 40.9706 31.6902 41.8428L31.7109 41.9217C31.8973 42.5401 32.3906 42.9799 32.963 43.104L34.7913 46.711L34.9062 46.9366C34.5842 47.2204 34.3357 47.6001 34.2058 48.0456L34.185 48.1245C34.0043 48.8275 34.1568 49.5361 34.5409 50.0662L34.298 50.4854L28.7472 60.0321C28.7302 60.0603 28.7208 60.0903 28.7077 60.1185C28.719 60.0922 28.7284 60.064 28.7434 60.0377C28.1089 60.111 27.5101 60.4982 27.1844 61.1241C26.6722 62.1053 27.0187 63.2989 27.962 63.7895C28.2369 63.9323 28.5307 64 28.8225 64C29.5248 64 30.214 63.609 30.5812 62.9324L30.6132 62.8722C30.9973 62.1072 30.8655 61.2219 30.342 60.6392L30.2046 60.876L35.9795 50.9459L35.9907 50.9271C36.0774 50.9384 36.1621 50.944 36.2487 50.944C37.2109 50.944 38.1053 50.2786 38.399 49.2711L38.4178 49.2034C38.7304 47.9948 38.062 46.7693 36.9096 46.4535L36.904 46.4516ZM33.4959 40.465C33.4695 40.433 33.4413 40.4048 33.4112 40.3766C33.4413 40.4029 33.4695 40.433 33.4959 40.465ZM32.8482 40.1624C32.8783 40.1624 32.9103 40.1661 32.9404 40.168C32.8971 40.1623 32.8519 40.1623 32.8068 40.1642C32.8199 40.1642 32.835 40.1624 32.8482 40.1624ZM33.0986 40.2018C33.0534 40.1868 33.0063 40.1774 32.9574 40.1699C33.0045 40.1755 33.0515 40.1868 33.0986 40.2018ZM32.7785 40.1661C32.7314 40.1699 32.6825 40.1774 32.6354 40.1905C32.6825 40.1774 32.7296 40.1699 32.7785 40.1661ZM28.6361 60.3497C28.6323 60.3798 28.6342 60.408 28.6342 60.4381C28.6342 60.408 28.6342 60.3798 28.6361 60.3497ZM28.6323 60.5133C28.6342 60.5433 28.6418 60.5715 28.6474 60.5997C28.6418 60.5715 28.6342 60.5415 28.6323 60.5133ZM28.6888 60.7539C28.6775 60.7257 28.6662 60.6993 28.6587 60.6711C28.6662 60.6993 28.6794 60.7275 28.6888 60.7539ZM28.911 61.0809C28.9524 61.1185 28.9995 61.1523 29.0485 61.1805C28.9976 61.1523 28.9524 61.1185 28.911 61.0809Z" fill="#002FA7"/>
<path d="M8.06343 59.0885L8.05589 59.8065L8.28184 60.2144C8.55863 59.6956 9.05007 59.3084 9.63566 59.1693L9.60176 59.1073L8.06531 59.0904" fill="#638B41"/>
<path d="M9.63566 59.1693C9.04819 59.3084 8.55675 59.6956 8.28184 60.2144L9.63189 62.6467C9.78629 62.9248 10.0744 63.0827 10.3738 63.0827C10.5131 63.0827 10.6524 63.0489 10.7823 62.9775C11.1909 62.7519 11.3397 62.2369 11.1119 61.829L9.63566 59.1693Z" fill="#638B41"/>
<path d="M42.3983 14.2759H42.3851C42.0857 14.2759 41.8127 14.383 41.5962 14.556C41.0012 15.0372 40.28 15.336 39.5156 15.3755L36.9567 15.5071C36.904 15.5089 36.8512 15.5108 36.7985 15.5108C36.2449 15.5108 35.7046 15.3623 35.2131 15.1067C35.0851 15.0409 34.9401 15.0033 34.7876 15.0033C34.7556 15.0033 34.7254 15.0033 34.6934 15.009C34.2302 15.0559 33.8687 15.4507 33.8631 15.9149V15.9356C33.8687 16.4469 34.2848 16.8491 34.7857 16.8491C34.8026 16.8491 34.8177 16.8491 34.8346 16.8491C35.0022 16.8397 35.1566 16.789 35.2884 16.7025C35.81 16.3661 36.3975 16.1518 37.0169 16.1217L39.5476 15.9901C39.6041 15.9864 39.6624 15.9864 39.7189 15.9864C40.4231 15.9864 41.1085 16.2063 41.7016 16.5935C41.9012 16.7232 42.1366 16.7965 42.3889 16.7965C42.4096 16.7965 42.4322 16.7965 42.4529 16.7965C43.1232 16.7608 43.6467 16.2082 43.6485 15.5465V15.5353C43.6485 15.4864 43.6448 15.4356 43.6391 15.3849C43.5657 14.774 43.0479 14.3003 42.4341 14.2797C42.4209 14.2797 42.4077 14.2797 42.3964 14.2797" fill="#002FA7"/>
<path d="M31.7354 19.7645H31.7165C31.2741 19.7682 30.8843 20.0972 30.8127 20.5389C30.728 21.0689 31.1065 21.5539 31.6337 21.6065C31.6638 21.6103 31.6958 21.6103 31.726 21.6103C31.8596 21.6103 31.9877 21.5802 32.1044 21.5276C32.5733 21.3152 33.0779 21.1949 33.59 21.1949C33.6936 21.1949 33.7972 21.2005 33.9007 21.2099L36.4219 21.458C37.1845 21.5332 37.8906 21.8659 38.463 22.3734C38.6551 22.5445 38.9017 22.6572 39.1766 22.6854C39.2162 22.6892 39.2538 22.6911 39.2934 22.6911H39.3103C39.9788 22.6873 40.5417 22.1572 40.5625 21.4655C40.5625 21.4561 40.5625 21.4449 40.5625 21.4355V21.4204C40.5587 20.8265 40.1256 20.3039 39.5363 20.1949C39.4572 20.1799 39.3762 20.1723 39.299 20.1723C39.0693 20.1723 38.8509 20.2344 38.6645 20.3434C38.0977 20.6742 37.4613 20.8603 36.8136 20.8603C36.7044 20.8603 36.5952 20.8547 36.486 20.8453L33.9365 20.5953C33.3321 20.5351 32.7634 20.2983 32.272 19.9411C32.1327 19.8396 31.9613 19.7757 31.773 19.7663C31.7617 19.7663 31.7504 19.7663 31.7373 19.7663" fill="#002FA7"/>
<path d="M18.9241 52.0643C18.8939 52.0643 18.8638 52.0661 18.8337 52.0699C18.7188 52.0849 18.6153 52.13 18.5305 52.1977C18.1916 52.459 17.7981 52.6432 17.3744 52.7015L15.6403 52.9439C15.5329 52.959 15.4256 52.9665 15.3183 52.9665C14.9022 52.9665 14.4917 52.8575 14.1207 52.6601C13.9984 52.5943 13.8571 52.5586 13.7103 52.5586C13.6707 52.5586 13.6293 52.5605 13.5898 52.5661C13.1567 52.6263 12.8423 52.9947 12.8385 53.4195V53.4326C12.8385 53.4909 12.846 53.5511 12.8573 53.6093C12.9383 53.9947 13.2734 54.2766 13.6613 54.2973C13.6745 54.2973 13.6877 54.2973 13.7027 54.2973H13.7178C13.731 54.2973 13.7423 54.2973 13.7555 54.2973C13.8402 54.2935 13.9212 54.2766 13.9965 54.2503C14.1189 54.2089 14.2281 54.1413 14.3166 54.0548C14.6969 53.6883 15.1752 53.4383 15.6986 53.365L17.4516 53.1206C17.5514 53.1075 17.6493 53.0999 17.7491 53.0999C18.0654 53.0999 18.3799 53.1676 18.6774 53.2898C18.7527 53.3217 18.8356 53.3387 18.9203 53.3387C18.9598 53.3387 18.9994 53.3349 19.0408 53.3274C19.3571 53.2672 19.5831 52.974 19.5586 52.6526C19.5322 52.3124 19.2498 52.0624 18.9222 52.0624L18.9241 52.0643Z" fill="#002FA7"/>
<path d="M21.1647 56.5359C21.1158 56.3047 20.9143 56.1506 20.6921 56.1468H20.6789C20.6375 56.1468 20.5961 56.1525 20.5547 56.1638C20.4699 56.1882 20.3965 56.2314 20.3362 56.2916C20.1065 56.5265 19.826 56.7032 19.5096 56.7916L18.2161 57.1506C18.056 57.1938 17.8941 57.2164 17.7303 57.2164C17.493 57.2164 17.2577 57.1712 17.0317 57.0885C16.9583 57.0604 16.8792 57.0472 16.8001 57.0472C16.7418 57.0472 16.6815 57.0547 16.6213 57.0716C16.2503 57.175 16.0413 57.5697 16.1694 57.9381C16.2654 58.2069 16.5215 58.3817 16.8001 58.3817C16.8397 58.3817 16.8811 58.378 16.9206 58.3705C17.0882 58.3404 17.2276 58.2502 17.3236 58.1299C17.5759 57.8122 17.9148 57.5754 18.3046 57.4664L19.6113 57.1036C19.7601 57.0622 19.9126 57.0434 20.0651 57.0434C20.2308 57.0434 20.3984 57.066 20.5603 57.1092C20.5998 57.1205 20.6432 57.1261 20.6846 57.1261C20.7354 57.1261 20.7881 57.1186 20.839 57.1017C21.0404 57.0359 21.1741 56.8442 21.1741 56.6393V56.6356C21.1741 56.6036 21.1704 56.5698 21.1628 56.5378L21.1647 56.5359Z" fill="#E01072"/>
<path d="M20.3231 59.8949C20.3042 59.8949 20.2854 59.893 20.2666 59.893C19.9107 59.893 19.6075 60.1618 19.568 60.517L19.5642 60.5621C19.5473 60.9343 19.826 61.2576 20.1988 61.2933H20.2251C20.2383 61.2971 20.2534 61.2971 20.2666 61.2971C20.6319 61.2971 20.9406 61.017 20.9689 60.6486C20.999 60.2614 20.7109 59.9249 20.3231 59.893V59.8949Z" fill="#E01072"/>
<path d="M24.4918 3.20103L24.4711 3.19539C24.3129 3.1484 24.1548 3.12773 23.9966 3.12773C23.187 3.12773 22.415 3.70666 22.1344 4.59197L22.1175 4.65024C21.9725 5.15962 22.0139 5.67277 22.2041 6.1032L17.4648 13.9996C17.3744 13.9808 17.2822 13.9676 17.188 13.9582L17.0939 13.9507C17.0374 13.947 16.9809 13.9451 16.9244 13.9451C15.5235 13.9451 14.3373 15.0108 14.2036 16.4187L14.1961 16.507C14.1057 17.9769 15.1997 19.2551 16.6664 19.3942L16.7587 19.4017C16.7888 19.4017 16.8171 19.4054 16.8472 19.4054L15.2091 16.6593L19.5285 23.9016C19.3967 24.1158 19.3119 24.3639 19.2893 24.6327C19.2197 25.535 19.8938 26.3244 20.7994 26.394C20.8427 26.3977 20.886 26.3996 20.9294 26.3996C21.7635 26.3996 22.4715 25.7718 22.56 24.9354L22.5675 24.8414C22.6108 23.9579 21.9442 23.1967 21.0555 23.1271C21.0499 23.1271 21.0442 23.1271 21.0386 23.1271L16.6664 15.7965C16.6401 15.7514 16.6081 15.7119 16.5761 15.6744C16.61 15.7119 16.6401 15.7514 16.6664 15.7965L18.5173 18.8998C19.1368 18.4562 19.5699 17.7589 19.649 16.9469L19.6584 16.836C19.7036 16.071 19.4249 15.3567 18.941 14.8304L23.5447 7.15768C23.6257 7.16896 23.7085 7.17648 23.7895 7.17648C24.5991 7.17648 25.3711 6.59567 25.6498 5.71036L25.6668 5.65585C25.9737 4.59009 25.4502 3.4999 24.4899 3.20291L24.4918 3.20103ZM15.9717 15.3811C15.9227 15.3811 15.8756 15.3811 15.8267 15.3868C15.8643 15.3811 15.902 15.3792 15.9396 15.3792C15.9509 15.3792 15.9604 15.3792 15.9717 15.3811ZM15.8173 15.3886C15.7721 15.3962 15.7269 15.4074 15.6817 15.4206C15.7269 15.4056 15.7721 15.3943 15.8173 15.3886ZM16.1505 15.4056C16.1976 15.4168 16.2428 15.4338 16.2861 15.4544C16.2428 15.4356 16.1976 15.4187 16.1505 15.4056ZM16.3181 15.4695C16.3595 15.4901 16.401 15.5146 16.4405 15.5409C16.4028 15.5127 16.3614 15.4901 16.3181 15.4695ZM23.379 5.14647C23.3301 5.13895 23.2811 5.13895 23.234 5.14083C23.2435 5.14083 23.2547 5.13895 23.2642 5.13895C23.3018 5.13895 23.3414 5.14271 23.379 5.14647ZM23.6972 5.25924C23.652 5.23293 23.605 5.21225 23.5579 5.19346C23.605 5.21037 23.652 5.23105 23.6972 5.25924ZM23.5221 5.1803C23.4788 5.16526 23.4336 5.15398 23.3903 5.14834C23.4355 5.15586 23.4788 5.16714 23.5221 5.1803ZM23.1983 5.14271C23.1531 5.14647 23.1098 5.1521 23.0665 5.16338C23.1098 5.1521 23.155 5.14647 23.1983 5.14271ZM23.0533 5.16526C23.0062 5.17654 22.9629 5.19346 22.9177 5.21225C22.961 5.19346 23.0062 5.17654 23.0533 5.16526ZM22.6277 5.42653C22.5938 5.46413 22.5637 5.5036 22.5355 5.54871C22.5618 5.5036 22.5938 5.46413 22.6277 5.42653Z" fill="#E01072"/>
<path d="M38.9149 11.12C38.8264 10.7328 38.4875 10.4527 38.0977 10.4301C38.0827 10.4301 38.0676 10.4301 38.0525 10.4301H38.0412C38.0224 10.4301 38.0036 10.4301 37.9829 10.432C37.8887 10.4377 37.8002 10.4583 37.7174 10.4903C37.6006 10.5354 37.4971 10.6031 37.4123 10.6895C37.0282 11.073 36.5443 11.3361 36.0077 11.4207L34.2152 11.7027C34.1003 11.7215 33.9855 11.729 33.8706 11.729C33.5599 11.729 33.2492 11.6651 32.9574 11.5504C32.8839 11.5203 32.803 11.5053 32.7201 11.5053C32.6749 11.5053 32.6316 11.5091 32.5846 11.5203C32.2833 11.5842 32.0649 11.8549 32.0649 12.1575V12.1632C32.0649 12.182 32.0649 12.2008 32.0668 12.2196C32.1007 12.5635 32.3887 12.8135 32.7183 12.8135C32.7521 12.8135 32.786 12.8117 32.8199 12.806C32.9386 12.7872 33.0421 12.7383 33.1287 12.6688C33.4714 12.3944 33.8687 12.2008 34.3018 12.1312L36.0755 11.853C36.1998 11.8342 36.324 11.8248 36.4483 11.8248C36.8588 11.8248 37.2655 11.9301 37.6364 12.1181C37.7588 12.1801 37.8963 12.2158 38.0394 12.2158C38.0864 12.2158 38.1335 12.212 38.1806 12.2045C38.6174 12.135 38.9319 11.7609 38.9356 11.3324V11.3155C38.9356 11.2515 38.9281 11.1876 38.913 11.1219L38.9149 11.12Z" fill="#E01072"/>
<path d="M33.9177 8.50727C34.008 8.49411 34.1003 8.48659 34.1926 8.48659C34.5014 8.48659 34.8083 8.56554 35.087 8.70651C35.1792 8.7535 35.2809 8.77982 35.3901 8.77982C35.424 8.77982 35.4598 8.77794 35.4937 8.7723C35.8213 8.72155 36.0567 8.44148 36.0585 8.12006V8.11066C36.0585 8.06179 36.0529 8.01292 36.0416 7.96405C35.9738 7.66143 35.6989 7.44527 35.392 7.44527C35.3769 7.44527 35.3619 7.44527 35.3468 7.44527C35.1773 7.45655 35.0286 7.52797 34.9194 7.63699C34.6313 7.9227 34.2679 8.12006 33.8687 8.18209L32.5262 8.39073C32.4415 8.40389 32.3586 8.40953 32.2739 8.40953C32.0404 8.40953 31.8069 8.36066 31.5866 8.27419C31.532 8.25164 31.4718 8.24036 31.4096 8.24036C31.3757 8.24036 31.3418 8.24412 31.308 8.25164C31.0669 8.30051 30.8975 8.52794 30.9201 8.77418C30.9446 9.03169 31.1592 9.21965 31.4077 9.21965C31.4322 9.21965 31.4586 9.21777 31.4831 9.21401C31.5697 9.20086 31.6506 9.16326 31.7128 9.11251C31.9689 8.90763 32.2682 8.7629 32.5921 8.71215L33.9196 8.50539L33.9177 8.50727Z" fill="#E01072"/>
<path d="M32.1459 5.77239H32.1477C32.1666 5.77239 32.1835 5.77427 32.2023 5.77427C32.5657 5.77427 32.8727 5.4942 32.9028 5.12579C32.9329 4.74046 32.6467 4.40401 32.2607 4.37205H32.2513C32.2343 4.37017 32.2174 4.37017 32.2005 4.37017C31.8427 4.37017 31.5396 4.63896 31.5019 4.99797L31.4981 5.03745C31.4793 5.41525 31.7636 5.74419 32.1459 5.77427V5.77239Z" fill="#E01072"/>
<path d="M15.0189 41.9837C14.39 41.9837 13.8515 42.4762 13.8214 43.1284C13.8214 43.1453 13.8214 43.1623 13.8214 43.1811V43.1886C13.8214 43.7487 14.2243 44.2431 14.7779 44.3558C14.8607 44.3728 14.9417 44.3803 15.0227 44.3803C15.2335 44.3803 15.435 44.3239 15.6101 44.2261C16.1355 43.9292 16.7229 43.7638 17.3217 43.7638C17.4441 43.7638 17.5684 43.7713 17.6926 43.7844L20.1141 44.0645C20.6883 44.1303 21.225 44.3652 21.6863 44.7149C21.8181 44.8145 21.98 44.8784 22.1589 44.8897C22.1777 44.8897 22.1966 44.8915 22.2173 44.8915C22.6353 44.8915 23.0062 44.587 23.0815 44.1698C23.1719 43.666 22.8179 43.198 22.3171 43.1416C22.2832 43.1378 22.2493 43.1359 22.2154 43.1359C22.093 43.1359 21.9763 43.1623 21.8689 43.2074C21.4359 43.3935 20.9727 43.5006 20.5038 43.5006C20.3871 43.5006 20.2722 43.495 20.1555 43.4799L17.7604 43.2036C17.0374 43.1209 16.3708 42.792 15.8342 42.2995C15.6534 42.1341 15.4218 42.0232 15.1601 41.9931C15.113 41.9875 15.066 41.9856 15.0208 41.9856" fill="#002FA7"/>
<path d="M12.5523 47.6847C11.8763 47.6847 11.3246 48.2279 11.319 48.9083V48.9271C11.319 48.9459 11.319 48.9628 11.319 48.9816C11.3491 49.5812 11.8198 50.0775 12.4167 50.1414C12.4581 50.1451 12.4996 50.147 12.5391 50.1489H12.5579C12.8178 50.1489 13.0588 50.0662 13.2565 49.9271C13.8534 49.5098 14.5519 49.2692 15.2787 49.2692C15.2995 49.2692 15.322 49.2692 15.3428 49.2692L17.847 49.3143C18.442 49.3256 19.0144 49.5136 19.5209 49.8237C19.6584 49.9083 19.8203 49.9553 19.9954 49.9553C20.003 49.9553 20.0124 49.9553 20.0199 49.9553C20.4756 49.9403 20.854 49.5794 20.8917 49.1264C20.8936 49.1019 20.8955 49.0794 20.8955 49.055V49.0474C20.8936 48.5606 20.5 48.1602 20.0086 48.1508C20.003 48.1508 19.9973 48.1508 19.9917 48.1508C19.8335 48.1508 19.6866 48.1903 19.5567 48.2617C19.0427 48.5456 18.4722 48.711 17.8866 48.711C17.8677 48.711 17.8508 48.711 17.832 48.711L15.3541 48.664C14.6065 48.6489 13.8929 48.3802 13.2942 47.929C13.0927 47.7768 12.8441 47.6866 12.5749 47.6809C12.5673 47.6809 12.5598 47.6809 12.5523 47.6809" fill="#002FA7"/>
<path d="M46.0926 31.8205C46.23 30.7435 45.8252 29.7266 45.0965 29.0725C44.9365 29.2266 44.7256 29.3093 44.509 29.3093C44.3565 29.3093 44.2021 29.2679 44.0628 29.1815C43.7803 29.0048 43.6391 28.689 43.6711 28.3789C43.6354 28.3732 43.6015 28.3676 43.5657 28.3619C43.4377 28.345 43.3096 28.3356 43.1854 28.3356C41.7186 28.3356 40.4307 29.4728 40.2104 31.0329L40.2047 31.0724C40.1953 31.1382 40.1896 31.204 40.1859 31.2698L11.8443 32.578L11.5393 32.5911C11.1872 32.0141 10.5545 31.6269 9.82771 31.6175C9.82771 31.6175 9.81265 31.6175 9.80512 31.6175C8.75257 31.6175 7.88267 32.4182 7.78664 33.4445C7.78287 33.4652 7.78099 33.4859 7.77911 33.5065V33.6024C7.77911 33.6062 7.77911 33.608 7.77911 33.6118V33.6137V33.6588C7.78287 33.9614 7.85254 34.2471 7.97681 34.5046L2.64253 44.6491C2.46365 44.6491 2.28289 44.6716 2.10213 44.713L2.04 44.728C0.573209 45.0983 -0.296696 46.6998 0.0930669 48.3181C0.431991 49.7297 1.62199 50.694 2.8986 50.694C2.93438 50.694 2.96827 50.694 3.00405 50.6921L9.63566 62.6467L8.28561 60.2144C8.13498 60.4963 8.04836 60.8178 8.0446 61.1599C8.03142 62.2895 8.92956 63.2199 10.0612 63.2557H10.1459C11.2776 63.2463 12.1983 62.3384 12.2096 61.2087C12.2228 60.0791 11.3246 59.1505 10.1949 59.1129H10.1045C9.94445 59.1129 9.78817 59.1336 9.63942 59.1693L11.1156 61.829L3.54256 48.179L4.58569 50.0587C5.37463 49.3651 5.75498 48.2016 5.47066 47.0287C5.28425 46.2543 4.84177 45.6133 4.26936 45.1942L4.56686 44.6284L4.76268 44.2581L9.2892 35.6493L9.31368 35.6023L9.31744 35.5967C9.46431 35.6324 9.61871 35.6531 9.77876 35.655H9.78629C9.78629 35.655 9.79947 35.655 9.80512 35.655C10.6976 35.655 11.4583 35.0798 11.7295 34.2791L11.8274 34.2753L40.5304 32.9502C40.9485 33.764 41.711 34.3674 42.6468 34.5234L42.8276 34.5479C42.9255 34.5573 43.0234 34.5629 43.1194 34.5629C44.4638 34.5629 45.6576 33.608 46.0154 32.2453C46.006 32.266 45.9928 32.2866 45.9815 32.3054C46.0587 32.1701 46.102 32.0122 46.0944 31.8449C46.0926 31.7867 46.0832 31.7303 46.07 31.6776C46.0832 31.7303 46.0926 31.7867 46.0944 31.843L46.0982 31.8205H46.0926ZM2.52955 47.7881C2.48248 47.805 2.43541 47.8238 2.38833 47.8482C2.43352 47.8238 2.4806 47.8031 2.52955 47.7881ZM2.79693 47.7411C2.81387 47.7411 2.8327 47.743 2.84965 47.7448C2.80822 47.743 2.76492 47.743 2.72349 47.7448C2.74797 47.743 2.77245 47.7411 2.79693 47.7411ZM2.70278 47.7486C2.65571 47.7542 2.60675 47.7636 2.56156 47.7787C2.60864 47.7655 2.65571 47.7542 2.70278 47.7486ZM3.16409 47.8257C3.12644 47.8069 3.08878 47.7918 3.04924 47.7806C3.08878 47.7937 3.12644 47.8087 3.16409 47.8257ZM3.02664 47.773C2.98145 47.7599 2.93438 47.7524 2.88542 47.7467C2.9325 47.7524 2.97957 47.7599 3.02664 47.773ZM3.32979 47.929C3.36368 47.9572 3.39569 47.9873 3.42582 48.0211C3.39569 47.9873 3.36368 47.9554 3.32979 47.929ZM3.1961 47.8426C3.23941 47.8651 3.27895 47.8896 3.31849 47.9196C3.28083 47.8896 3.23941 47.8651 3.1961 47.8426ZM45.8836 31.3337C45.8629 31.3092 45.844 31.2867 45.8214 31.2641C45.844 31.2848 45.8629 31.3092 45.8836 31.3337ZM45.2471 31.0386C45.2716 31.0386 45.2942 31.0442 45.3168 31.0461C45.2791 31.0423 45.2434 31.0386 45.2038 31.0404C45.2189 31.0404 45.2321 31.0404 45.2471 31.0404V31.0386ZM45.7668 31.2228C45.7423 31.204 45.7197 31.1852 45.6953 31.1683C45.7216 31.1852 45.7442 31.204 45.7668 31.2228ZM45.6313 31.1344C45.6049 31.1213 45.5785 31.1062 45.5503 31.0949C45.5785 31.1062 45.6049 31.1194 45.6313 31.1344ZM45.4787 31.0743C45.4505 31.0668 45.4223 31.0574 45.3921 31.0517C45.4223 31.0574 45.4505 31.0649 45.4787 31.0743ZM45.2829 32.7284C45.3356 32.7265 45.3846 32.7171 45.4336 32.7058C45.3846 32.7171 45.3338 32.7265 45.2829 32.7284ZM45.6143 32.6438C45.6576 32.6231 45.699 32.5968 45.7386 32.5686C45.699 32.5968 45.6595 32.6212 45.6143 32.6438ZM45.876 32.4464C45.908 32.4107 45.9363 32.3731 45.9626 32.3318C45.9382 32.3731 45.908 32.4107 45.876 32.4464ZM45.9269 31.3844C45.9457 31.4107 45.9626 31.4408 45.9777 31.469C45.9608 31.4408 45.9457 31.4107 45.9269 31.3844Z" fill="#638B41"/>
<path d="M25.8193 38.0421C25.7797 38.0365 25.7402 38.0346 25.7006 38.0346C25.5839 38.0346 25.4709 38.0572 25.3674 38.1004C24.9437 38.2733 24.4956 38.3711 24.0418 38.3711C23.9062 38.3711 23.7688 38.3617 23.6332 38.3447L21.2231 38.0196C20.4963 37.9218 19.8297 37.5778 19.2988 37.0703C19.1199 36.8993 18.8883 36.7828 18.6266 36.747C18.5738 36.7395 18.5211 36.7358 18.4684 36.7358H18.459C17.8357 36.7376 17.2972 37.2188 17.2558 37.8692C17.2558 37.8936 17.2539 37.9199 17.2539 37.9444C17.2539 38.5026 17.6456 39.0007 18.1972 39.1248C18.2876 39.1455 18.378 39.1549 18.4665 39.1549C18.6699 39.1549 18.8657 39.1022 19.0389 39.0101C19.5567 38.7319 20.131 38.5778 20.7147 38.5778C20.8597 38.5778 21.0028 38.5872 21.1478 38.606L23.5843 38.9349C24.1623 39.0139 24.6989 39.262 25.1584 39.621C25.2902 39.7244 25.4521 39.7921 25.631 39.8071C25.6555 39.809 25.6799 39.8109 25.7063 39.8109C26.1224 39.8109 26.4934 39.512 26.5762 39.1004C26.6779 38.5947 26.3295 38.1173 25.8249 38.0478L25.8193 38.0421Z" fill="#638B41"/>
</svg>
